<svg width="32" height="32" viewBox="0 0 32 32" fill="none" xmlns="http://www.w3.org/2000/svg">
<path d="M16.0001 6C18.0676 6 19.7944 4.38875 20.0001 2.375C20.0188 2.1875 19.8126 2 19.6251 2C19.5237 2.0001 19.4232 2.01918 19.3288 2.05625C19.3163 2.06125 18.0101 2.5625 16.0001 2.5625C13.9901 2.5625 12.6813 2.0625 12.6713 2.05625C12.5648 2.01919 12.4528 2.00018 12.3401 2H12.3363C12.2896 2.00248 12.2438 2.01415 12.2016 2.03435C12.1594 2.05455 12.1216 2.08288 12.0904 2.11771C12.0591 2.15255 12.0351 2.19321 12.0196 2.23736C12.0041 2.28151 11.9975 2.32828 12.0001 2.375C12.2094 4.385 13.9376 6 16.0001 6Z" fill="black"/>
<path d="M30.3306 5.61883L22.25 2.79008C22.2154 2.77801 22.1786 2.77369 22.1421 2.77743C22.1057 2.78116 22.0705 2.79287 22.039 2.81171C22.0076 2.83056 21.9807 2.85608 21.9603 2.88647C21.9398 2.91686 21.9263 2.95138 21.9206 2.98758C21.6868 4.38825 20.9638 5.66059 19.8802 6.57834C18.7965 7.49609 17.4225 7.99975 16.0025 7.99975C14.5824 7.99975 13.2084 7.49609 12.1248 6.57834C11.0411 5.66059 10.3181 4.38825 10.0844 2.98758C10.0789 2.95077 10.0652 2.91566 10.0445 2.88479C10.0237 2.85392 9.99626 2.82808 9.96422 2.80916C9.93218 2.79023 9.89632 2.7787 9.85926 2.7754C9.82219 2.7721 9.78486 2.77711 9.74998 2.79008L1.66935 5.61883C1.44318 5.698 1.25296 5.85576 1.13332 6.06339C1.01368 6.27101 0.972567 6.5147 1.01748 6.75008L2.05685 12.2501C2.09685 12.4597 2.20287 12.6511 2.35941 12.7961C2.51594 12.9412 2.71478 13.0324 2.92685 13.0563L5.98185 13.4013C6.10656 13.4154 6.22142 13.4758 6.30363 13.5707C6.38583 13.6655 6.42937 13.7878 6.4256 13.9132L5.96748 28.9695C5.9614 29.1635 6.01195 29.3551 6.11294 29.5209C6.21394 29.6867 6.36102 29.8196 6.53623 29.9032C6.68187 29.969 6.84017 30.0021 6.99998 30.0001H25C25.1598 30.0021 25.3181 29.969 25.4637 29.9032C25.6389 29.8196 25.786 29.6867 25.887 29.5209C25.988 29.3551 26.0385 29.1635 26.0325 28.9695L25.5744 13.9132C25.5706 13.7878 25.6141 13.6655 25.6963 13.5707C25.7785 13.4758 25.8934 13.4154 26.0181 13.4013L29.0731 13.0563C29.2852 13.0324 29.484 12.9412 29.6405 12.7961C29.7971 12.6511 29.9031 12.4597 29.9431 12.2501L30.9825 6.75008C31.0274 6.5147 30.9863 6.27101 30.8666 6.06339C30.747 5.85576 30.5568 5.698 30.3306 5.61883Z" fill="black"/>
<path d="M14.75 13.2C14.75 12.8817 14.8817 12.5765 15.1161 12.3515C15.3505 12.1264 15.6685 12 16 12C16.3315 12 16.6495 12.1264 16.8839 12.3515C17.1183 12.5765 17.25 12.8817 17.25 13.2C17.25 13.5183 17.1183 13.8235 16.8839 14.0485C16.6495 14.2736 16.3315 14.4 16 14.4C15.6685 14.4 15.3505 14.2736 15.1161 14.0485C14.8817 13.8235 14.75 13.5183 14.75 13.2ZM13.5 16.8C13.5 16.3575 13.8724 16 14.3333 16H16C16.4609 16 16.8333 16.3575 16.8333 16.8V22.4H17.6667C18.1276 22.4 18.5 22.7575 18.5 23.2C18.5 23.6425 18.1276 24 17.6667 24H14.3333C13.8724 24 13.5 23.6425 13.5 23.2C13.5 22.7575 13.8724 22.4 14.3333 22.4H15.1667V17.6H14.3333C13.8724 17.6 13.5 17.2425 13.5 16.8Z" fill="#F3F3EF" stroke="#F3F3EF" stroke-width="0.25"/>
</svg>
